<svg aria-hidden="true" style="position: absolute; width: 0; height: 0; overflow: hidden;" version="1.1" xmlns="http://www.w3.org/2000/svg" xmlns:xlink="http://www.w3.org/1999/xlink">
<defs>
<symbol id="icon-envelope" viewBox="0 0 43 32">
<path fill="#757575" style="fill: var(--color1, #757575)" d="M38.667 0h-34.667c-2.205 0-4 1.794-4 3.999v23.992c0 2.205 1.794 3.999 4 3.999h34.667c2.206 0 4-1.794 4-3.999v-23.992c0-2.205-1.794-3.999-4-3.999zM38.667 2.666c0.181 0 0.353 0.037 0.511 0.103l-17.844 15.46-17.845-15.46c0.151-0.065 0.327-0.103 0.511-0.103h34.667zM38.667 29.323h-34.667c-0.736 0-1.333-0.597-1.333-1.333v-22.405l17.793 15.415c0.232 0.202 0.538 0.325 0.872 0.325 0 0 0.001 0 0.001 0h-0c0 0 0.001 0 0.001 0 0.334 0 0.64-0.123 0.874-0.327l-0.002 0.001 17.793-15.415v22.405c-0.001 0.736-0.597 1.332-1.333 1.333h-0z"></path>
</symbol>
<symbol id="icon-facebook-1" viewBox="0 0 32 32">
<path fill="#afb1b8" style="fill: var(--color2, #afb1b8)" d="M21.329 5.313h2.921v-5.088c-0.504-0.069-2.237-0.225-4.256-0.225-4.212 0-7.097 2.649-7.097 7.519v4.481h-4.648v5.688h4.648v14.312h5.699v-14.311h4.46l0.708-5.688h-5.169v-3.919c0.001-1.644 0.444-2.769 2.735-2.769z"></path>
</symbol>
<symbol id="icon-Group-1" viewBox="0 0 72 32">
<path fill="#f5f4fa" style="fill: var(--color3, #f5f4fa)" d="M1.067 0h69.867c0.589 0 1.067 0.478 1.067 1.067v29.867c0 0.589-0.478 1.067-1.067 1.067h-69.867c-0.589 0-1.067-0.478-1.067-1.067v-29.867c0-0.589 0.478-1.067 1.067-1.067z"></path>
<path fill="#212121" style="fill: var(--color4, #212121)" d="M44.618 19.557l-4.925-4.961 0.547-2.692c0.131 0.053 0.283 0.084 0.442 0.085h0.004c0.695 0.008 1.266-0.549 1.274-1.244s-0.549-1.266-1.245-1.274c-0.695-0.008-1.266 0.549-1.274 1.244-0 0.004-0 0.009-0 0.014 0 0.152 0.027 0.297 0.076 0.432l-0.003-0.009-2.893 0.353-4.719-4.744c-0.056-0.057-0.134-0.093-0.22-0.093h-0c-0.082 0-0.16 0.033-0.218 0.091l-0.882 0.877c-0.122 0.122-0.122 0.318 0 0.44l0.475 0.482c-1.839 3.382-1.242 7.57 1.47 10.303 0.025 0.024 0.054 0.043 0.085 0.057-0.019 0.096-0.030 0.206-0.030 0.319v3.609h-3.733c-0.859 0.001-1.555 0.697-1.556 1.556v0.622c0 0.172 0.139 0.311 0.311 0.311h14.311c0.172 0 0.311-0.139 0.311-0.311v-0.622c-0.001-0.859-0.697-1.555-1.555-1.556h-3.733v-1.599c0.585 0.123 1.181 0.185 1.778 0.187 1.505-0.002 2.919-0.387 4.152-1.063l-0.045 0.023 0.477 0.48c0.058 0.059 0.137 0.093 0.22 0.093 0.082-0 0.16-0.033 0.218-0.091l0.882-0.877c0.122-0.122 0.122-0.318 0-0.44zM40.247 10.303c0.243-0.242 0.638-0.241 0.88 0.002s0.241 0.638-0.002 0.88c-0.112 0.112-0.267 0.181-0.439 0.181-0 0-0 0-0 0h-0.002c-0.343-0.002-0.621-0.282-0.619-0.625 0.001-0.171 0.071-0.326 0.183-0.438l0-0h-0.001zM39.514 12.347l-0.349 1.718-0.686-0.69 1.035-1.029zM39.161 11.821l-1.12 1.113-0.866-0.871 1.986-0.242zM40.669 23.467c0.515 0 0.933 0.418 0.933 0.933v0.311h-13.689v-0.311c0-0.515 0.418-0.933 0.933-0.933h11.822zM36.314 22.222v0.622h-3.111v-0.622h3.111zM33.202 21.6v-2.364c0-0.755 0.698-1.369 1.555-1.369s1.556 0.614 1.556 1.369v2.364h-3.111zM36.936 20.611v-1.375c0-1.098-0.977-1.991-2.178-1.991-0.010-0-0.022-0-0.034-0-0.789 0-1.482 0.412-1.875 1.033l-0.005 0.009c-2.367-2.493-2.9-6.21-1.329-9.268l10.851 10.913c-1.063 0.552-2.321 0.876-3.655 0.876-0.629 0-1.241-0.072-1.829-0.208l0.054 0.011zM43.521 20.212l-12.283-12.355 0.44-0.439 4.629 4.655c0.002 0 0.003 0.004 0.006 0.006l7.65 7.695-0.441 0.439z"></path>
<path fill="#2196f3" style="fill: var(--color5, #2196f3)" d="M34.761 18.489h-0.003c-0.515-0.001-0.934 0.416-0.935 0.932s0.417 0.934 0.932 0.935h0.003c0.515 0.001 0.934-0.416 0.935-0.932s-0.417-0.934-0.932-0.935zM34.978 19.643c-0.056 0.056-0.134 0.091-0.219 0.091-0 0-0.001 0-0.001 0h0c-0.172-0.001-0.31-0.141-0.309-0.313 0-0.082 0.033-0.161 0.092-0.219s0.136-0.090 0.218-0.091c0.172 0.001 0.31 0.141 0.31 0.313-0 0.086-0.035 0.163-0.092 0.219v0h0.003z"></path>
</symbol>
<symbol id="icon-Group-2" viewBox="0 0 72 32">
<path fill="#f5f4fa" style="fill: var(--color3, #f5f4fa)" d="M1.067 0h69.867c0.589 0 1.067 0.478 1.067 1.067v29.867c0 0.589-0.478 1.067-1.067 1.067h-69.867c-0.589 0-1.067-0.478-1.067-1.067v-29.867c0-0.589 0.478-1.067 1.067-1.067z"></path>
<path fill="#212121" style="fill: var(--color4, #212121)" d="M44.923 15.592c-0.001-4.931-3.999-8.927-8.93-8.926s-8.927 3.999-8.926 8.93c0.001 3.884 2.512 7.321 6.212 8.503 0.035 0.011 0.072 0.017 0.109 0.017 0.074-0 0.143-0.020 0.202-0.056l-0.002 0.001c0.078-0.047 0.137-0.119 0.165-0.205l0.001-0.003 2.255-7.146c0.616-0.003 1.113-0.505 1.11-1.122s-0.505-1.113-1.122-1.11c-0.174 0.001-0.339 0.042-0.485 0.115l0.006-0.003-2.978-2.979c-0.148-0.143-0.383-0.139-0.526 0.009-0.139 0.144-0.139 0.373 0 0.517l2.977 2.98c-0.228 0.466-0.098 1.029 0.313 1.347l-2.148 6.809c-4.245-1.564-6.419-6.273-4.855-10.518s6.273-6.419 10.519-4.855c4.245 1.564 6.419 6.273 4.855 10.518-0.785 2.089-2.335 3.737-4.301 4.63l-0.051 0.021-0.232-1.093c-0.042-0.201-0.24-0.329-0.441-0.287-0.066 0.014-0.124 0.045-0.171 0.087l0-0-2.238 1.998c-0.154 0.137-0.167 0.372-0.031 0.525 0.045 0.050 0.102 0.087 0.165 0.107l2.858 0.912c0.195 0.063 0.405-0.045 0.468-0.24 0.011-0.034 0.018-0.073 0.018-0.114 0-0.027-0.003-0.054-0.008-0.079l0 0.002-0.228-1.073c3.304-1.393 5.449-4.633 5.442-8.219zM35.995 15.22c0.205 0 0.372 0.167 0.372 0.372s-0.167 0.372-0.372 0.372c-0.206 0-0.372-0.166-0.372-0.372s0.166-0.372 0.372-0.372zM37.221 23.891l1.274-1.136 0.352 1.657-1.626-0.52z"></path>
<path fill="#2196f3" style="fill: var(--color5, #2196f3)" d="M35.623 8.525v0.744c0 0.206 0.166 0.372 0.372 0.372s0.372-0.166 0.372-0.372v-0.744c0-0.205-0.167-0.372-0.372-0.372s-0.372 0.167-0.372 0.372zM28.928 15.22c-0.206 0-0.372 0.167-0.372 0.372s0.166 0.372 0.372 0.372h0.744c0.205 0 0.372-0.166 0.372-0.372s-0.167-0.372-0.372-0.372h-0.744zM43.063 15.964c0.205 0 0.372-0.166 0.372-0.372s-0.166-0.372-0.372-0.372h-0.744c-0.206 0-0.372 0.167-0.372 0.372s0.166 0.372 0.372 0.372h0.744z"></path>
</symbol>
<symbol id="icon-Group-3" viewBox="0 0 72 32">
<path fill="#f5f4fa" style="fill: var(--color3, #f5f4fa)" d="M1.067 0h69.867c0.589 0 1.067 0.478 1.067 1.067v29.867c0 0.589-0.478 1.067-1.067 1.067h-69.867c-0.589 0-1.067-0.478-1.067-1.067v-29.867c0-0.589 0.478-1.067 1.067-1.067z"></path>
<path fill="#2196f3" style="fill: var(--color5, #2196f3)" d="M35.373 15.396h0.622v2.799h-0.622v-2.799zM37.861 16.64h0.622v1.555h-0.622v-1.555zM32.886 17.573h0.622v0.622h-0.622v-0.622zM31.020 17.262h0.622v0.933h-0.622v-0.933z"></path>
<path fill="#212121" style="fill: var(--color4, #212121)" d="M27.599 23.17h14.926c0.515 0 0.933-0.418 0.933-0.933v-1.244c0-0.515-0.418-0.933-0.933-0.933h-0.311v-7.754l1.766-1.673c0.41 0.202 0.906 0.079 1.174-0.291s0.231-0.88-0.089-1.207-0.829-0.375-1.205-0.115c-0.376 0.26-0.51 0.754-0.317 1.168l-1.331 1.262v-0.717c0-0.515-0.418-0.933-0.933-0.933h-12.438c-0.515 0-0.933 0.418-0.933 0.933v9.328h-0.311c-0.515 0-0.933 0.418-0.933 0.933v1.244c0 0.515 0.418 0.933 0.933 0.933zM44.391 9.488c0.172 0 0.311 0.139 0.311 0.311s-0.139 0.311-0.311 0.311c-0.172 0-0.311-0.139-0.311-0.311s0.139-0.311 0.311-0.311zM28.532 10.732c0-0.172 0.139-0.311 0.311-0.311h12.438c0.172 0 0.311 0.139 0.311 0.311v1.306l-0.622 0.591v-1.275c0-0.172-0.139-0.311-0.311-0.311h-11.194c-0.172 0-0.311 0.139-0.311 0.311v7.774c0 0.172 0.139 0.311 0.311 0.311h11.194c0.171 0 0.311-0.139 0.311-0.311v-5.643l0.622-0.589v7.165h-13.060v-9.328zM31.331 14.774c-0.421-0.001-0.79 0.279-0.902 0.685s0.061 0.836 0.423 1.050c0.362 0.215 0.822 0.161 1.125-0.132l1.081 0.542c0.040 0.021 0.088 0.033 0.139 0.033 0.092 0 0.175-0.040 0.232-0.104l0-0 2.298-2.585 2.259 1.692c0.121 0.091 0.29 0.081 0.4-0.023l1.963-1.859v4.743h-10.572v-7.152h10.572v1.552l-2.2 2.083-2.278-1.707c-0.129-0.097-0.311-0.079-0.419 0.042l-2.329 2.621-0.871-0.435c0.006-0.033 0.010-0.072 0.012-0.111l0-0.002c0-0.515-0.418-0.933-0.933-0.933zM31.642 15.707c0 0.172-0.139 0.311-0.311 0.311s-0.311-0.139-0.311-0.311c0-0.172 0.139-0.311 0.311-0.311s0.311 0.139 0.311 0.311zM33.507 20.682h3.11v0.311c0 0.172-0.139 0.311-0.311 0.311h-2.488c-0.172 0-0.311-0.139-0.311-0.311v-0.311zM27.289 20.993c0-0.172 0.139-0.311 0.311-0.311h5.286v0.311c0 0.515 0.418 0.933 0.933 0.933h2.488c0.515 0 0.933-0.418 0.933-0.933v-0.311h5.286c0.172 0 0.311 0.139 0.311 0.311v1.244c0 0.172-0.139 0.311-0.311 0.311h-14.926c-0.172 0-0.311-0.139-0.311-0.311v-1.244z"></path>
</symbol>
<symbol id="icon-Group-4" viewBox="0 0 72 32">
<path fill="#f5f4fa" style="fill: var(--color3, #f5f4fa)" d="M1.067 0h69.867c0.589 0 1.067 0.478 1.067 1.067v29.867c0 0.589-0.478 1.067-1.067 1.067h-69.867c-0.589 0-1.067-0.478-1.067-1.067v-29.867c0-0.589 0.478-1.067 1.067-1.067z"></path>
<path fill="#2196f3" style="fill: var(--color5, #2196f3)" d="M45.318 9.306c-0.037-0.112-0.133-0.194-0.249-0.211l-0.002-0-1.114-0.162-0.499-1.010c-0.105-0.213-0.453-0.213-0.558 0l-0.499 1.010-1.115 0.162c-0.118 0.018-0.214 0.1-0.251 0.209l-0.001 0.002c-0.037 0.113-0.006 0.236 0.079 0.319l0.807 0.786-0.19 1.11c-0.003 0.016-0.004 0.034-0.004 0.052 0 0.103 0.050 0.195 0.127 0.251l0.001 0.001c0.051 0.037 0.114 0.060 0.183 0.060 0.053 0 0.103-0.013 0.147-0.037l-0.002 0.001 0.997-0.524 0.997 0.524c0.046 0.024 0.095 0.036 0.145 0.036 0.064 0 0.129-0.020 0.183-0.059 0.096-0.070 0.144-0.188 0.123-0.304l-0.19-1.11 0.807-0.786c0.085-0.083 0.115-0.206 0.079-0.319zM43.882 10.080c-0.058 0.056-0.094 0.135-0.094 0.223 0 0.019 0.002 0.037 0.005 0.055l-0-0.002 0.111 0.65-0.583-0.307c-0.042-0.023-0.092-0.036-0.145-0.036-0 0-0 0-0 0h0c-0.050 0-0.099 0.012-0.145 0.036l-0.583 0.307 0.111-0.65c0.018-0.101-0.016-0.204-0.089-0.275l-0.473-0.46 0.653-0.095c0.101-0.015 0.189-0.078 0.234-0.17l0.292-0.591 0.292 0.591c0.046 0.092 0.133 0.156 0.234 0.17l0.653 0.095-0.472 0.46zM41.911 18.638h-0.622v0.622h0.622v-0.622zM41.911 19.882h-0.622v0.622h0.622v-0.622zM42.533 19.26h-0.622v0.622h0.622v-0.622zM41.289 19.26h-0.622v0.622h0.622v-0.622zM39.733 22.060h-0.622v0.622h0.622v-0.622zM39.733 23.305h-0.622v0.622h0.622v-0.622zM40.356 22.682h-0.622v0.622h0.622v-0.622zM39.111 22.682h-0.622v0.622h0.622v-0.622zM36 20.816h-0.622v0.622h0.622v-0.622zM36 22.060h-0.622v0.622h0.622v-0.622zM36.622 21.438h-0.622v0.622h0.622v-0.622zM35.378 21.438h-0.622v0.622h0.622v-0.622zM30.089 10.238h-0.622v0.622h0.622v-0.622zM30.089 11.482h-0.622v0.622h0.622v-0.622zM30.711 10.86h-0.622v0.622h0.622v-0.622zM29.467 10.86h-0.622v0.622h0.622v-0.622z"></path>
<path fill="#212121" style="fill: var(--color4, #212121)" d="M41.084 14.926c-0.168-0.226-0.414-0.372-0.693-0.411-0.281-0.040-0.558 0.034-0.782 0.205l-0.73 0.56-1.107 0.827-0.792-0.316c1.413-0.634 2.4-2.046 2.4-3.687 0-2.23-1.822-4.044-4.061-4.044s-4.061 1.814-4.061 4.044c0 0.808 0.242 1.56 0.653 2.192l-1.615-0.014c-0.005 0-0.009 0.002-0.014 0.003-0.031 0.001-0.061 0.007-0.091 0.018-0.007 0.003-0.015 0.004-0.022 0.008-0.004 0.002-0.007 0.002-0.011 0.004l-1.886 0.931c-0 0-0.001 0-0.001 0l-1.104 0.531c-0.014 0.006-0.026 0.013-0.038 0.021l0.001-0.001c-0.44 0.293-0.59 0.869-0.349 1.339 0.129 0.25 0.347 0.434 0.616 0.519 0.094 0.030 0.202 0.048 0.314 0.048h0c0.169 0 0.337-0.041 0.49-0.123l0.81-0.431 1.321-0.682 0.791-0.005-3.174 3.159c-0 0-0.001 0-0.001 0.001l-0.781 0.778c-0.184 0.184-0.286 0.427-0.286 0.687s0.102 0.504 0.286 0.688c0.19 0.189 0.439 0.283 0.688 0.283s0.498-0.095 0.689-0.283l0.767-0.764 1.015-0.758 0.525 0.523-1.027 1.023c-0.001 0-0.001 0-0.001 0.001l-0.781 0.778c-0.185 0.184-0.286 0.427-0.286 0.687s0.102 0.504 0.286 0.688c0.189 0.189 0.439 0.283 0.688 0.283s0.499-0.095 0.689-0.283l2.031-2.022c0-0 0-0.001 0.001-0.001l0.589-0.583-0.002-0.002c0.004-0.004 0.009-0.005 0.013-0.009l3.013-3.301 2.025 0.288c0.015 0.002 0.029 0.003 0.044 0.003 0.038 0 0.074-0.009 0.109-0.022 0.010-0.004 0.019-0.009 0.029-0.014 0.011-0.006 0.023-0.009 0.034-0.016l1.874-1.244c0.007-0.005 0.011-0.012 0.017-0.017 0.007-0.006 0.017-0.008 0.024-0.015l0.742-0.695c0.386-0.362 0.439-0.954 0.124-1.378zM27.909 17.033c-0.101 0.054-0.216 0.065-0.326 0.030s-0.197-0.108-0.249-0.209c-0.094-0.183-0.039-0.406 0.125-0.526l0.766-0.369 0.185 0.539 0.077 0.226-0.579 0.308zM29.949 15.966l-0.903 0.467-0.149-0.436-0.107-0.313 1.182-0.584-0.023 0.866zM38.757 12.104c0 0.536-0.128 1.041-0.349 1.493l-2.439-1.108c-0.025-0.334-0.199-0.627-0.46-0.81l0.854-2.835c1.387 0.441 2.394 1.735 2.394 3.26zM31.881 12.104c0-1.887 1.542-3.422 3.438-3.422 0.147 0 0.292 0.012 0.435 0.030l-0.835 2.773c-0.011-0-0.022-0.003-0.033-0.003-0.602 0-1.093 0.488-1.093 1.089s0.49 1.089 1.093 1.089c0.405 0 0.755-0.224 0.944-0.551l2.253 1.024c-0.627 0.844-1.63 1.394-2.763 1.394-1.896 0-3.438-1.535-3.438-3.422zM35.355 12.571c0 0.257-0.211 0.467-0.47 0.467s-0.47-0.209-0.47-0.467 0.211-0.467 0.47-0.467c0.259 0 0.47 0.209 0.47 0.467zM28.105 21.335c-0.138 0.137-0.361 0.136-0.498 0-0.066-0.066-0.103-0.154-0.103-0.247s0.036-0.18 0.103-0.246l0.561-0.559 0.497 0.494-0.559 0.557zM29.979 23.513c-0.138 0.137-0.361 0.137-0.499 0-0.066-0.066-0.103-0.154-0.103-0.247s0.036-0.18 0.103-0.246l0.562-0.559 0.497 0.494-0.56 0.557zM32.010 21.49c-0 0-0.001 0-0.001 0.001l-1.030 1.027-0.497-0.494 1.029-1.024c0-0 0.001-0 0.001-0.001 0.023-0.023 0.038-0.051 0.052-0.079 0.004-0.008 0.012-0.015 0.015-0.023 0.010-0.024 0.011-0.050 0.015-0.075 0.002-0.014 0.008-0.028 0.008-0.042 0-0.021-0.007-0.041-0.012-0.062-0.004-0.019-0.004-0.038-0.011-0.056-0.012-0.029-0.032-0.055-0.053-0.080-0.006-0.007-0.008-0.016-0.015-0.022h-0.001c-0-0-0-0.001-0.001-0.001l-0.937-0.933c-0.010-0.010-0.023-0.014-0.034-0.022-0.017-0.013-0.033-0.025-0.051-0.034s-0.036-0.014-0.055-0.019c-0.020-0.006-0.039-0.010-0.060-0.012-0.019-0.001-0.037 0.001-0.056 0.003-0.021 0.002-0.040 0.005-0.061 0.012s-0.037 0.016-0.055 0.026c-0.012 0.007-0.025 0.009-0.035 0.017l-1.035 0.772-0.525-0.523 1.399-1.392 2.543 2.502-0.541 0.536zM35.988 17.397c-0.009-0.001-0.017 0.002-0.026 0.002-0.005-0-0.010-0-0.015-0-0.018 0-0.036 0.002-0.054 0.005l0.002-0c-0.018 0.003-0.034 0.007-0.051 0.012-0.020 0.007-0.038 0.016-0.056 0.027s-0.034 0.023-0.049 0.036l0-0c-0.007 0.006-0.017 0.010-0.023 0.017l-2.741 3.002-2.525-2.483 1.653-1.644c0.122-0.121 0.122-0.318 0.001-0.44-0.061-0.061-0.142-0.091-0.222-0.091v-0l-1.294 0.008 0.016-0.938 1.811 0.016c0.738 0.755 1.767 1.225 2.906 1.225 0.255 0 0.504-0.026 0.746-0.072 0.023 0.019 0.046 0.038 0.075 0.049l1.406 0.56 0.089 0.442 0.104 0.516-1.752-0.249zM38.345 17.5l-0.182-0.909 0.844-0.63 0.552 0.733-1.213 0.806zM40.535 15.849l-0.489 0.458-0.543-0.721 0.485-0.372c0.091-0.070 0.205-0.098 0.317-0.083 0.113 0.016 0.212 0.075 0.28 0.166 0.126 0.17 0.105 0.408-0.050 0.553z"></path>
<path fill="#212121" style="fill: var(--color4, #212121)" d="M34.601 17.484l-1.25-1.244c-0.121-0.121-0.318-0.121-0.439 0l-1.25 1.244c-0.056 0.056-0.091 0.134-0.091 0.221v0c0 0.083 0.033 0.162 0.091 0.221l1.25 1.244c0.061 0.060 0.14 0.091 0.219 0.091s0.159-0.030 0.219-0.091l1.25-1.244c0.058-0.058 0.092-0.138 0.092-0.221s-0.033-0.162-0.092-0.221zM33.132 18.51l-0.809-0.805 0.809-0.805 0.809 0.805-0.809 0.805zM36.679 9.625l-0.15 0.604c0.041 0.010 1.014 0.264 1.014 1.254h0.622c0-1.177-0.972-1.73-1.486-1.858zM38.165 12.104h-0.622v0.622h0.622v-0.622z"></path>
</symbol>
<symbol id="icon-instagram-2" viewBox="0 0 32 32">
<path fill="#afb1b8" style="fill: var(--color2, #afb1b8)" d="M31.969 9.408c-0.075-1.7-0.35-2.869-0.744-3.882-0.406-1.075-1.032-2.038-1.851-2.838-0.78-0.792-1.724-1.419-2.778-1.826l-0.054-0.018c-1.019-0.394-2.182-0.669-3.882-0.744-1.713-0.081-2.257-0.1-6.601-0.1s-4.888 0.019-6.595 0.094c-1.7 0.075-2.869 0.35-3.882 0.744-1.075 0.406-2.038 1.031-2.838 1.85-0.792 0.78-1.419 1.724-1.826 2.778l-0.018 0.054c-0.394 1.019-0.669 2.181-0.744 3.882-0.081 1.713-0.1 2.257-0.1 6.602s0.019 4.888 0.094 6.595c0.075 1.7 0.35 2.869 0.744 3.882 0.427 1.11 1.056 2.057 1.849 2.837l0.001 0.001c0.78 0.792 1.724 1.419 2.778 1.826l0.054 0.018c1.019 0.394 2.182 0.669 3.882 0.744 1.706 0.075 2.25 0.094 6.595 0.094s4.888-0.019 6.595-0.094c1.7-0.075 2.869-0.35 3.882-0.744 2.157-0.85 3.832-2.525 4.663-4.627l0.019-0.055c0.394-1.019 0.669-2.182 0.744-3.882 0.075-1.707 0.094-2.251 0.094-6.595s-0.006-4.888-0.081-6.595zM29.087 22.473c-0.069 1.563-0.331 2.407-0.55 2.969-0.551 1.4-1.639 2.487-3.002 3.026l-0.036 0.013c-0.563 0.219-1.413 0.481-2.969 0.55-1.688 0.075-2.194 0.094-6.464 0.094s-4.782-0.019-6.464-0.094c-1.563-0.069-2.407-0.331-2.969-0.55-0.694-0.256-1.325-0.663-1.838-1.194-0.517-0.504-0.923-1.117-1.183-1.804l-0.011-0.034c-0.219-0.563-0.481-1.413-0.55-2.969-0.075-1.688-0.094-2.194-0.094-6.464s0.019-4.782 0.094-6.464c0.069-1.563 0.331-2.407 0.55-2.969 0.256-0.694 0.663-1.325 1.2-1.838 0.504-0.517 1.117-0.923 1.804-1.183l0.034-0.011c0.563-0.219 1.413-0.481 2.969-0.55 1.688-0.075 2.194-0.094 6.464-0.094 4.276 0 4.782 0.019 6.464 0.094 1.563 0.069 2.407 0.331 2.969 0.55 0.694 0.256 1.325 0.662 1.838 1.194 0.531 0.519 0.938 1.144 1.194 1.838 0.219 0.563 0.481 1.413 0.55 2.969 0.075 1.688 0.094 2.194 0.094 6.464s-0.019 4.77-0.094 6.458z"></path>
<path fill="#afb1b8" style="fill: var(--color2, #afb1b8)" d="M16.059 7.783c-4.538 0-8.22 3.682-8.22 8.22s3.682 8.22 8.22 8.22c4.539 0 8.22-3.682 8.22-8.22s-3.682-8.22-8.22-8.22zM16.059 21.335c-2.944 0-5.332-2.388-5.332-5.332s2.388-5.332 5.332-5.332c2.944 0 5.332 2.388 5.332 5.332s-2.388 5.332-5.332 5.332zM26.524 7.458c0 1.060-0.859 1.919-1.919 1.919s-1.919-0.859-1.919-1.919c0-1.060 0.859-1.919 1.919-1.919s1.919 0.859 1.919 1.919z"></path>
</symbol>
<symbol id="icon-linkedin-1" viewBox="0 0 32 32">
<path fill="#afb1b8" style="fill: var(--color2, #afb1b8)" d="M31.992 32v-0.001h0.008v-11.736c0-5.741-1.236-10.164-7.948-10.164-3.227 0-5.392 1.771-6.276 3.449h-0.093v-2.913h-6.364v21.364h6.627v-10.579c0-2.785 0.528-5.479 3.977-5.479 3.399 0 3.449 3.179 3.449 5.657v10.401h6.62zM0.528 10.636h6.635v21.364h-6.635v-21.364zM3.843 0c-2.121 0-3.843 1.721-3.843 3.843s1.721 3.879 3.843 3.879c2.121 0 3.843-1.757 3.843-3.879-0.001-2.121-1.723-3.843-3.843-3.843z"></path>
</symbol>
<symbol id="icon-Logo-1" viewBox="0 0 57 32">
<path fill="#afb1b8" style="fill: var(--color2, #afb1b8)" d="M20.267 3.733l3.738 3.538-6.938-0.004v17.166h18.133v-6.564l3.733 3.534v-17.671h-18.667zM35.036 17.455l-10.597-10.032h10.597v10.032zM31.746 21.923h-11.81v-11.545h0.835v10.764h10.975v0.782zM22.725 26.72l-0.436 0.898-0.436-0.898h-0.366l0.637 1.198v0.698h0.331v-0.698l0.635-1.198h-0.365zM23.273 28.615l0.154-0.441h0.734l0.155 0.441h0.344l-0.717-1.896h-0.296l-0.716 1.896h0.342zM23.794 27.122l0.275 0.786h-0.549l0.275-0.786zM25.531 27.863c-0.045 0.067-0.072 0.149-0.072 0.238 0 0.001 0 0.002 0 0.003v-0c0 0.16 0.056 0.29 0.168 0.389s0.263 0.148 0.451 0.148 0.349-0.051 0.484-0.152l0.107 0.126h0.367l-0.279-0.329c0.109-0.149 0.164-0.341 0.164-0.574h-0.275c0 0.128-0.026 0.243-0.079 0.348l-0.366-0.432 0.129-0.094c0.091-0.066 0.157-0.132 0.197-0.198 0.038-0.062 0.060-0.136 0.060-0.216 0-0.001 0-0.002 0-0.003v0c0-0.12-0.044-0.22-0.133-0.301s-0.201-0.122-0.339-0.122c-0.153 0-0.274 0.043-0.365 0.13s-0.135 0.203-0.135 0.352c0 0.061 0.014 0.124 0.043 0.189s0.081 0.144 0.155 0.237c-0.141 0.101-0.235 0.188-0.283 0.262zM26.386 28.282c-0.093 0.071-0.193 0.107-0.299 0.107-0.095 0-0.17-0.027-0.227-0.082s-0.085-0.126-0.085-0.214c0-0.102 0.052-0.192 0.156-0.271l0.040-0.029 0.414 0.488zM26.046 27.442c-0.089-0.11-0.134-0.202-0.134-0.275 0-0.063 0.018-0.116 0.055-0.158s0.085-0.063 0.147-0.063c0.057 0 0.105 0.018 0.142 0.053s0.056 0.077 0.056 0.126c0 0.075-0.027 0.136-0.081 0.184l-0.040 0.033-0.145 0.099zM29.132 28.472c0.13-0.114 0.205-0.272 0.224-0.474h-0.328c-0.017 0.135-0.059 0.232-0.124 0.29s-0.162 0.087-0.292 0.087c-0.142 0-0.249-0.054-0.323-0.161s-0.109-0.264-0.109-0.469v-0.168c0.002-0.202 0.041-0.355 0.117-0.46s0.188-0.158 0.331-0.158c0.123 0 0.217 0.030 0.28 0.091s0.104 0.158 0.12 0.294h0.328c-0.021-0.207-0.095-0.368-0.223-0.482s-0.296-0.171-0.505-0.171c-0.155 0-0.293 0.037-0.411 0.111s-0.209 0.179-0.272 0.315c-0.063 0.136-0.095 0.294-0.095 0.473v0.177c0.003 0.174 0.035 0.328 0.098 0.46s0.151 0.234 0.266 0.306c0.115 0.071 0.249 0.107 0.4 0.107 0.216 0 0.389-0.056 0.52-0.169zM31.068 28.206c0.064-0.141 0.096-0.304 0.096-0.49v-0.105c-0.001-0.185-0.034-0.347-0.099-0.486s-0.158-0.247-0.277-0.32c-0.119-0.075-0.256-0.112-0.41-0.112s-0.292 0.038-0.411 0.113c-0.119 0.075-0.211 0.183-0.277 0.324s-0.098 0.305-0.098 0.49v0.107c0.001 0.181 0.034 0.342 0.099 0.48s0.159 0.246 0.279 0.322c0.121 0.075 0.258 0.112 0.411 0.112 0.155 0 0.293-0.037 0.411-0.112s0.212-0.183 0.276-0.323zM30.716 27.135c0.080 0.112 0.12 0.273 0.12 0.483v0.099c0 0.214-0.040 0.376-0.119 0.487s-0.19 0.167-0.336 0.167c-0.144 0-0.257-0.057-0.339-0.171s-0.121-0.275-0.121-0.483v-0.109c0.002-0.204 0.043-0.362 0.122-0.473s0.192-0.168 0.335-0.168c0.146 0 0.258 0.056 0.337 0.168z"></path>
</symbol>
<symbol id="icon-Logo-2" viewBox="0 0 57 32">
<path fill="#afb1b8" style="fill: var(--color2, #afb1b8)" d="M19.417 26.187c0.009 0 0.017 0.002 0.025 0.005l-0-0c0.008 0.003 0.015 0.007 0.021 0.013l-0-0 0.116 0.111c-0.090 0.090-0.202 0.162-0.327 0.211-0.129 0.048-0.278 0.076-0.434 0.076-0.011 0-0.021-0-0.031-0l0.002 0c-0.007 0-0.015 0-0.024 0-0.148 0-0.29-0.026-0.421-0.074l0.009 0.003c-0.125-0.045-0.237-0.113-0.329-0.2-0.094-0.089-0.166-0.194-0.212-0.308s-0.074-0.245-0.074-0.383c0-0.004 0-0.009 0-0.013v0.001c-0-0.004-0-0.009-0-0.013 0-0.139 0.029-0.271 0.082-0.39l-0.002 0.006c0.051-0.115 0.127-0.22 0.225-0.308 0.099-0.087 0.218-0.155 0.349-0.201 0.13-0.045 0.279-0.071 0.435-0.071 0.005 0 0.010 0 0.016 0h-0.001c0.008-0 0.017-0 0.027-0 0.14 0 0.274 0.024 0.399 0.067l-0.009-0.003c0.115 0.043 0.221 0.104 0.313 0.178l-0.097 0.119c-0.007 0.009-0.015 0.016-0.024 0.021l-0 0c-0.010 0.006-0.021 0.009-0.034 0.009-0.002 0-0.004-0-0.006-0l0 0c-0.016-0.001-0.030-0.005-0.043-0.013l0 0-0.052-0.032-0.073-0.040c-0.026-0.013-0.058-0.026-0.092-0.037l-0.006-0.002c-0.036-0.012-0.081-0.023-0.126-0.031l-0.006-0.001c-0.048-0.008-0.103-0.013-0.16-0.013-0.005 0-0.009 0-0.014 0h0.001c-0.003-0-0.007-0-0.012-0-0.112 0-0.219 0.019-0.318 0.055l0.007-0.002c-0.096 0.034-0.182 0.084-0.253 0.149-0.073 0.069-0.128 0.15-0.164 0.238-0.038 0.090-0.060 0.194-0.060 0.303 0 0.004 0 0.007 0 0.011v-0.001c-0 0.004-0 0.008-0 0.012 0 0.11 0.022 0.216 0.062 0.312l-0.002-0.005c0.035 0.087 0.090 0.167 0.161 0.236 0.067 0.064 0.149 0.114 0.241 0.147 0.095 0.034 0.197 0.051 0.3 0.050 0.005 0 0.011 0 0.017 0 0.056 0 0.112-0.004 0.167-0.011l-0.006 0.001c0.1-0.011 0.191-0.041 0.273-0.087l-0.003 0.002c0.044-0.025 0.081-0.051 0.117-0.080l-0.002 0.001c0.015-0.012 0.034-0.020 0.055-0.020h0zM22.776 25.629c0 0.003 0 0.008 0 0.012 0 0.138-0.029 0.269-0.081 0.388l0.002-0.006c-0.047 0.114-0.122 0.218-0.219 0.305s-0.214 0.155-0.344 0.2c-0.132 0.045-0.284 0.071-0.442 0.071s-0.31-0.026-0.452-0.074l0.010 0.003c-0.129-0.046-0.245-0.114-0.342-0.201-0.097-0.089-0.172-0.194-0.221-0.308-0.105-0.255-0.105-0.533 0-0.787 0.050-0.115 0.125-0.22 0.221-0.31 0.097-0.084 0.214-0.15 0.342-0.193 0.132-0.046 0.284-0.072 0.442-0.072s0.31 0.026 0.452 0.075l-0.010-0.003c0.129 0.046 0.246 0.114 0.343 0.201 0.096 0.088 0.17 0.191 0.22 0.304 0.054 0.127 0.080 0.261 0.078 0.395zM22.47 25.629c0-0.005 0-0.011 0-0.017 0-0.108-0.020-0.21-0.057-0.305l0.002 0.006c-0.033-0.087-0.086-0.168-0.156-0.236-0.068-0.065-0.152-0.116-0.246-0.149-0.096-0.033-0.206-0.052-0.321-0.052s-0.225 0.019-0.329 0.054l0.007-0.002c-0.094 0.033-0.178 0.084-0.246 0.149-0.071 0.068-0.125 0.149-0.157 0.236-0.035 0.094-0.055 0.203-0.055 0.316s0.020 0.222 0.058 0.322l-0.002-0.006c0.033 0.087 0.086 0.168 0.157 0.236 0.068 0.065 0.152 0.115 0.246 0.148 0.096 0.032 0.207 0.050 0.321 0.050s0.225-0.018 0.329-0.053l-0.007 0.002c0.094-0.033 0.177-0.083 0.246-0.148 0.070-0.069 0.123-0.149 0.156-0.236 0.035-0.088 0.055-0.191 0.055-0.298 0-0.006-0-0.013-0-0.019l0 0.001zM25.067 25.96l0.031 0.071c0.012-0.025 0.022-0.048 0.033-0.071 0.013-0.027 0.025-0.050 0.039-0.072l-0.002 0.003 0.743-1.174c0.015-0.020 0.028-0.033 0.042-0.037s0.033-0.007 0.051-0.007c0.004 0 0.007 0 0.011 0l-0-0h0.22v1.909h-0.26v-1.463c-0.001-0.010-0.001-0.021-0.001-0.033s0-0.023 0.001-0.034l-0 0.002-0.747 1.19c-0.010 0.018-0.025 0.033-0.043 0.043l-0.001 0c-0.018 0.010-0.040 0.016-0.063 0.016-0 0-0.001 0-0.001 0h-0.042c-0.001 0-0.001 0-0.002 0-0.023 0-0.044-0.006-0.063-0.016l0.001 0c-0.019-0.010-0.033-0.025-0.043-0.043l-0-0.001-0.769-1.198v1.532h-0.252v-1.905h0.22c0.003-0 0.007-0 0.010-0 0.018 0 0.035 0.002 0.052 0.007l-0.001-0c0.018 0.007 0.032 0.020 0.040 0.036l0 0 0.759 1.175c0.014 0.020 0.026 0.042 0.037 0.066l0.001 0.003zM27.864 25.865v0.715h-0.291v-1.906h0.649c0.007-0 0.015-0 0.023-0 0.12 0 0.237 0.015 0.348 0.044l-0.010-0.002c0.094 0.023 0.181 0.064 0.256 0.119 0.065 0.052 0.114 0.116 0.145 0.187 0.034 0.078 0.051 0.161 0.049 0.244 0 0.002 0 0.005 0 0.007 0 0.086-0.020 0.167-0.055 0.24l0.001-0.003c-0.035 0.073-0.089 0.138-0.157 0.191-0.073 0.056-0.159 0.099-0.252 0.125l-0.005 0.001c-0.098 0.028-0.211 0.044-0.328 0.044-0.008 0-0.016-0-0.024-0l-0.351-0.005zM27.864 25.66h0.352c0.076 0.001 0.153-0.009 0.225-0.029 0.062-0.018 0.117-0.046 0.164-0.083l-0.001 0.001c0.042-0.033 0.076-0.076 0.098-0.124l0.001-0.002c0.022-0.046 0.035-0.099 0.035-0.156 0-0.002 0-0.003-0-0.005v0c0-0.006 0.001-0.013 0.001-0.020 0-0.049-0.011-0.096-0.031-0.137l0.001 0.002c-0.025-0.052-0.059-0.095-0.101-0.13l-0.001-0.001c-0.111-0.075-0.251-0.112-0.391-0.102h-0.352v0.786zM31.772 26.583h-0.23c-0.001 0-0.003 0-0.004 0-0.022 0-0.043-0.007-0.060-0.018l0 0c-0.016-0.011-0.029-0.026-0.038-0.044l-0-0.001-0.198-0.461h-0.993l-0.205 0.461c-0.008 0.018-0.021 0.032-0.036 0.043l-0 0c-0.017 0.012-0.038 0.019-0.061 0.019-0.001 0-0.003-0-0.004-0h-0.23l0.872-1.909h0.302l0.884 1.909zM30.333 25.874h0.82l-0.346-0.777c-0.023-0.049-0.046-0.109-0.063-0.171l-0.002-0.009-0.033 0.1c-0.011 0.034-0.022 0.060-0.034 0.087l0.002-0.006-0.343 0.776zM33.029 24.682c0.017 0.008 0.032 0.020 0.043 0.034l0 0 1.272 1.439v-1.482h0.26v1.909h-0.145c-0.001 0-0.003 0-0.004 0-0.020 0-0.039-0.004-0.057-0.012l0.001 0c-0.018-0.009-0.034-0.021-0.046-0.035l-0-0-1.271-1.438c0.001 0.010 0.001 0.021 0.001 0.033s-0 0.023-0.001 0.034l0-0.002v1.419h-0.26v-1.909h0.154c0.001-0 0.002-0 0.004-0 0.017 0 0.034 0.003 0.050 0.009l-0.001-0zM36.748 25.823v0.758h-0.291v-0.758l-0.804-1.15h0.26c0.002-0 0.004-0 0.006-0 0.021 0 0.041 0.006 0.057 0.017l-0-0c0.016 0.012 0.029 0.026 0.039 0.042l0 0.001 0.503 0.742c0.020 0.032 0.038 0.061 0.052 0.088 0.012 0.022 0.024 0.048 0.035 0.076l0.002 0.005 0.038-0.082c0.016-0.034 0.032-0.062 0.051-0.090l-0.001 0.002 0.496-0.747c0.011-0.015 0.023-0.029 0.037-0.040l0-0c0.016-0.012 0.036-0.019 0.058-0.019 0.002 0 0.003 0 0.005 0h0.263l-0.806 1.155zM24.923 21.47c0.127 0.014 0.255 0.025 0.384 0.035 1.962-0.763 3.622-2.011 4.772-3.588s1.74-3.415 1.695-5.282l-2.162-1.879c0.44 1.988 0.234 4.043-0.594 5.935s-2.246 3.547-4.094 4.779z"></path>
<path fill="#afb1b8" style="fill: var(--color2, #afb1b8)" d="M24.151 21.383l0.058 0.010c1.975-1.228 3.481-2.942 4.323-4.921s0.981-4.133 0.399-6.181l-3.080-2.676c1.246 2.2 1.747 4.661 1.446 7.098s-1.393 4.75-3.147 6.67zM34.596 14.841c-0.523 2.052-1.794 3.902-3.624 5.276-0.534 0.404-1.111 0.763-1.722 1.074 1.49-0.38 2.859-1.053 4.003-1.966s2.030-2.042 2.592-3.3l-1.249-1.084z"></path>
<path fill="#afb1b8" style="fill: var(--color2, #afb1b8)" d="M34.106 14.539l-1.778-1.545c-0.034 1.762-0.61 3.483-1.669 4.986s-2.562 2.731-4.352 3.559h0.009c0.421-0 0.836-0.023 1.245-0.066l-0.051 0.004c1.673-0.593 3.151-1.538 4.303-2.748s1.94-2.65 2.295-4.189zM24.409 6.486l-2.122-1.846c-1.897 0.637-3.528 1.756-4.68 3.212s-1.772 3.179-1.778 4.946c0.007 1.952 0.763 3.846 2.149 5.383s3.322 2.628 5.501 3.101c1.946-2.060 3.085-4.605 3.252-7.266s-0.647-5.299-2.323-7.53zM39.008 14.255c-0.008-2.316-1.070-4.535-2.955-6.173s-4.439-2.561-7.105-2.567c-1.232-0.001-2.453 0.196-3.602 0.582l12.99 11.286c0.445-0.998 0.673-2.058 0.672-3.128z"></path>
</symbol>
<symbol id="icon-Logo-3" viewBox="0 0 57 32">
<path fill="#afb1b8" style="fill: var(--color2, #afb1b8)" d="M12.878 11.255h-0.002c-1.279 0-2.316 0.921-2.316 2.058v0.001c0 1.137 1.037 2.058 2.316 2.058h0.002c1.279 0 2.316-0.921 2.316-2.058v-0.001c0-1.137-1.037-2.058-2.316-2.058zM29.971 10.597c-0.004-1.579-0.711-3.092-1.967-4.208s-2.958-1.745-4.735-1.749c-1.777 0.003-3.48 0.631-4.737 1.748s-1.964 2.63-1.968 4.209v8.706s13.405-1.327 13.406-8.704v-0.001zM5.867 22.16c0.003 1.098 0.496 2.151 1.369 2.928s2.058 1.215 3.294 1.218c1.236-0.003 2.42-0.441 3.294-1.217s1.366-1.829 1.37-2.927v-6.057s-9.327 0.924-9.327 6.056zM10.53 23.245c-0.242 0-0.478-0.064-0.678-0.183s-0.357-0.289-0.45-0.487c-0.092-0.198-0.117-0.417-0.069-0.627s0.163-0.404 0.334-0.556c0.171-0.152 0.388-0.255 0.625-0.297s0.482-0.020 0.706 0.062c0.223 0.082 0.414 0.221 0.548 0.4s0.206 0.388 0.206 0.603c0 0.001 0 0.002 0 0.002 0 0.15-0.034 0.293-0.094 0.42l0.003-0.006c-0.061 0.132-0.151 0.252-0.264 0.354s-0.248 0.182-0.397 0.236c-0.139 0.053-0.299 0.083-0.467 0.083-0.001 0-0.001 0-0.001 0h0v-0.004zM19.956 22.647h-0.9v0.93h-0.469v-2.275h1.481v0.38h-1.012v0.587h0.9v0.378zM22.209 22.491c0 0.224-0.040 0.42-0.119 0.589s-0.193 0.299-0.341 0.391c-0.147 0.092-0.316 0.137-0.506 0.137-0.189 0-0.357-0.045-0.505-0.136s-0.262-0.22-0.344-0.388c-0.081-0.169-0.122-0.363-0.123-0.581v-0.113c0-0.224 0.040-0.421 0.12-0.591 0.081-0.171 0.195-0.302 0.342-0.392 0.148-0.092 0.317-0.137 0.506-0.137s0.358 0.046 0.505 0.137c0.148 0.091 0.262 0.221 0.342 0.392 0.081 0.17 0.122 0.366 0.122 0.589v0.102zM21.734 22.388c0-0.239-0.043-0.42-0.128-0.544s-0.207-0.186-0.366-0.186c-0.157 0-0.279 0.061-0.364 0.184-0.085 0.122-0.129 0.301-0.13 0.538v0.111c0 0.232 0.043 0.413 0.128 0.541s0.208 0.192 0.369 0.192c0.157 0 0.278-0.061 0.363-0.184 0.084-0.124 0.127-0.304 0.128-0.541v-0.111zM23.73 22.98c0-0.089-0.031-0.156-0.094-0.203-0.063-0.048-0.175-0.098-0.337-0.15-0.163-0.053-0.291-0.105-0.386-0.156-0.258-0.14-0.387-0.328-0.387-0.564 0-0.123 0.034-0.232 0.103-0.328 0.070-0.097 0.169-0.172 0.298-0.227 0.13-0.054 0.276-0.081 0.438-0.081 0.163 0 0.307 0.030 0.434 0.089 0.127 0.058 0.226 0.141 0.295 0.248s0.106 0.229 0.106 0.366h-0.469c0-0.104-0.033-0.185-0.098-0.242-0.066-0.058-0.158-0.088-0.277-0.088-0.115 0-0.204 0.024-0.267 0.073-0.064 0.048-0.095 0.111-0.095 0.191 0 0.074 0.037 0.136 0.111 0.186 0.075 0.050 0.185 0.097 0.33 0.141 0.267 0.080 0.461 0.18 0.583 0.298s0.183 0.267 0.183 0.444c0 0.197-0.075 0.352-0.223 0.464-0.149 0.111-0.349 0.167-0.602 0.167-0.175 0-0.334-0.032-0.478-0.095-0.144-0.065-0.254-0.153-0.33-0.264s-0.113-0.241-0.113-0.387h0.47c0 0.251 0.15 0.377 0.45 0.377 0.111 0 0.198-0.022 0.261-0.067 0.063-0.046 0.094-0.109 0.094-0.191zM26.231 21.682h-0.697v1.895h-0.469v-1.895h-0.687v-0.38h1.853v0.38zM27.869 22.591h-0.9v0.609h1.056v0.377h-1.525v-2.275h1.522v0.38h-1.053v0.542h0.9v0.367zM29.142 22.744h-0.373v0.833h-0.469v-2.275h0.845c0.269 0 0.476 0.060 0.622 0.18s0.219 0.289 0.219 0.508c0 0.155-0.034 0.285-0.102 0.389-0.067 0.103-0.168 0.185-0.305 0.247l0.492 0.93v0.022h-0.503l-0.427-0.833zM28.769 22.365h0.378c0.118 0 0.209-0.030 0.273-0.089s0.097-0.143 0.097-0.248c0-0.107-0.031-0.192-0.092-0.253-0.060-0.061-0.154-0.092-0.28-0.092h-0.377v0.683zM31.609 22.775v0.802h-0.469v-2.275h0.887c0.171 0 0.321 0.031 0.45 0.094s0.23 0.152 0.3 0.267c0.070 0.115 0.105 0.245 0.105 0.392 0 0.223-0.077 0.399-0.23 0.528-0.152 0.128-0.363 0.192-0.633 0.192h-0.411zM31.609 22.396h0.419c0.124 0 0.218-0.029 0.283-0.087 0.066-0.058 0.098-0.142 0.098-0.25 0-0.111-0.033-0.202-0.098-0.27s-0.156-0.104-0.272-0.106h-0.43v0.714zM34.575 22.591h-0.9v0.609h1.056v0.377h-1.525v-2.275h1.522v0.38h-1.053v0.542h0.9v0.367zM36.75 21.682h-0.697v1.895h-0.469v-1.895h-0.688v-0.38h1.853v0.38zM38.387 22.591h-0.9v0.609h1.056v0.377h-1.525v-2.275h1.522v0.38h-1.053v0.542h0.9v0.367zM39.661 22.744h-0.373v0.833h-0.469v-2.275h0.845c0.269 0 0.476 0.060 0.622 0.18s0.219 0.289 0.219 0.508c0 0.155-0.034 0.285-0.102 0.389-0.067 0.103-0.168 0.185-0.305 0.247l0.492 0.93v0.022h-0.503l-0.427-0.833zM39.287 22.365h0.378c0.118 0 0.209-0.030 0.273-0.089s0.097-0.143 0.097-0.248c0-0.107-0.031-0.192-0.092-0.253-0.060-0.061-0.154-0.092-0.28-0.092h-0.377v0.683zM42.042 22.98c0-0.089-0.031-0.156-0.094-0.203-0.063-0.048-0.175-0.098-0.337-0.15-0.163-0.053-0.291-0.105-0.386-0.156-0.258-0.14-0.388-0.328-0.388-0.564 0-0.123 0.034-0.232 0.103-0.328 0.070-0.097 0.169-0.172 0.298-0.227 0.13-0.054 0.276-0.081 0.438-0.081 0.163 0 0.307 0.030 0.434 0.089 0.127 0.058 0.226 0.141 0.295 0.248 0.071 0.107 0.106 0.229 0.106 0.366h-0.469c0-0.104-0.033-0.185-0.098-0.242-0.066-0.058-0.158-0.088-0.277-0.088-0.115 0-0.204 0.024-0.267 0.073-0.064 0.048-0.095 0.111-0.095 0.191 0 0.074 0.037 0.136 0.111 0.186 0.075 0.050 0.185 0.097 0.33 0.141 0.267 0.080 0.461 0.18 0.583 0.298s0.183 0.267 0.183 0.444c0 0.197-0.074 0.352-0.223 0.464-0.149 0.111-0.349 0.167-0.602 0.167-0.175 0-0.334-0.032-0.478-0.095-0.144-0.065-0.254-0.153-0.33-0.264-0.075-0.111-0.112-0.241-0.112-0.387h0.47c0 0.251 0.15 0.377 0.45 0.377 0.111 0 0.198-0.022 0.261-0.067 0.063-0.046 0.094-0.109 0.094-0.191z"></path>
</symbol>
<symbol id="icon-Logo-4" viewBox="0 0 57 32">
<path fill="#afb1b8" style="fill: var(--color2, #afb1b8)" d="M14.27 23.859c0.13 0.147 0.199 0.332 0.196 0.521 0.001 0.012 0.001 0.026 0.001 0.040 0 0.116-0.026 0.227-0.073 0.325l0.002-0.005c-0.052 0.114-0.132 0.216-0.233 0.297-0.252 0.175-0.565 0.26-0.881 0.24h-1.549v-3.302h1.517c0.299-0.018 0.596 0.059 0.84 0.219 0.098 0.075 0.176 0.17 0.227 0.277s0.074 0.224 0.068 0.341c0.009 0.182-0.054 0.361-0.176 0.505-0.118 0.131-0.28 0.222-0.462 0.258 0.205 0.034 0.391 0.134 0.523 0.282zM12.454 23.36h0.648c0.147 0.010 0.294-0.029 0.412-0.11 0.047-0.039 0.085-0.088 0.11-0.144l0.001-0.003c0.019-0.042 0.030-0.092 0.030-0.144 0-0.011-0.001-0.022-0.002-0.033l0 0.001c0.001-0.008 0.001-0.018 0.001-0.028 0-0.053-0.011-0.104-0.031-0.15l0.001 0.002c-0.026-0.058-0.062-0.108-0.108-0.147l-0.001-0c-0.122-0.083-0.273-0.123-0.425-0.111h-0.638v0.866zM13.578 24.627c0.051-0.040 0.091-0.091 0.118-0.149l0.001-0.003c0.022-0.046 0.035-0.101 0.035-0.158 0-0.009-0-0.018-0.001-0.027l0 0.001c0-0.007 0.001-0.015 0.001-0.023 0-0.059-0.013-0.115-0.037-0.165l0.001 0.002c-0.029-0.061-0.070-0.112-0.121-0.152l-0.001-0.001c-0.127-0.086-0.283-0.128-0.44-0.119h-0.68v0.908h0.689c0.155 0.008 0.309-0.032 0.435-0.115zM17.371 25.278l-0.844-1.291h-0.317v1.291h-0.726v-3.302h1.374c0.346-0.022 0.689 0.078 0.957 0.281 0.192 0.179 0.308 0.415 0.327 0.666s-0.061 0.499-0.224 0.7c-0.17 0.178-0.401 0.296-0.655 0.336l0.898 1.32h-0.789zM16.21 23.538h0.594c0.412 0 0.618-0.167 0.618-0.5 0.001-0.008 0.001-0.018 0.001-0.028 0-0.062-0.012-0.121-0.035-0.175l0.001 0.003c-0.028-0.067-0.068-0.124-0.118-0.171l-0-0c-0.13-0.099-0.298-0.147-0.467-0.134h-0.601l0.007 1.005zM21.339 24.614h-1.446l-0.255 0.665h-0.761l1.328-3.265h0.823l1.323 3.265h-0.761l-0.25-0.665zM21.145 24.114l-0.529-1.394-0.529 1.394h1.057zM26.305 25.278h-0.721l-1.616-2.245v2.245h-0.719v-3.302h0.719l1.616 2.258v-2.258h0.721v3.302zM30.417 24.488c-0.149 0.249-0.376 0.452-0.652 0.582-0.314 0.145-0.662 0.217-1.013 0.208h-1.283v-3.302h1.283c0.351-0.008 0.698 0.061 1.013 0.203 0.276 0.127 0.503 0.328 0.652 0.576 0.148 0.269 0.226 0.565 0.226 0.866s-0.077 0.598-0.226 0.866zM29.593 24.409c0.206-0.219 0.319-0.499 0.319-0.788s-0.113-0.569-0.319-0.788c-0.249-0.199-0.573-0.3-0.902-0.281h-0.5v2.137h0.5c0.329 0.019 0.654-0.082 0.902-0.281zM21.79 3.609s9.301 3.215 9.103 7.867v7.869s-9.294-3.217-9.1-7.869l-0.004-7.867zM39.179 17.503c1.757-1.107 3.788-1.792 5.909-1.994v-2.463c-2.444 0.862-4.517 2.426-5.909 4.457z"></path>
<path fill="#afb1b8" style="fill: var(--color2, #afb1b8)" d="M38.124 18.245c1.438-2.651 3.93-4.696 6.964-5.715v-7.098s-13.245 4.58-12.965 11.205v11.203s0.59-0.205 1.519-0.589c0-0.358 0-0.719 0.042-1.082 0.274-3.076 1.871-5.926 4.44-7.924z"></path>
<path fill="#afb1b8" style="fill: var(--color2, #afb1b8)" d="M36.864 22.407c0.078-0.847 0.242-1.626 0.485-2.37l-0.021 0.076c-1.599 1.725-2.568 3.866-2.77 6.122-0.019 0.213-0.030 0.426-0.035 0.645 0.752-0.331 1.628-0.744 2.548-1.229-0.158-0.688-0.249-1.478-0.249-2.289 0-0.336 0.016-0.669 0.046-0.998l-0.003 0.042zM37.391 22.447c-0.026 0.272-0.041 0.589-0.041 0.909 0 0.718 0.075 1.419 0.216 2.095l-0.012-0.066c3.619-1.983 7.685-5.046 7.528-8.748v-0.323c-2.585 0.265-5.004 1.3-6.885 2.946-0.44 1.020-0.712 2.094-0.807 3.188z"></path>
</symbol>
<symbol id="icon-Logo-5" viewBox="0 0 57 32">
<path fill="#afb1b8" style="fill: var(--color2, #afb1b8)" d="M28.493 14.618c-0.236-0.315-0.349-0.686-0.323-1.061v-1.538c0-0.471 0.107-0.83 0.321-1.075s0.581-0.367 1.102-0.366c0.489 0 0.836 0.104 1.042 0.313 0.224 0.266 0.333 0.592 0.308 0.92v0.361h-0.875v-0.366c0-0.014 0.001-0.031 0.001-0.048 0-0.11-0.009-0.217-0.028-0.321l0.002 0.011c-0.013-0.081-0.057-0.156-0.125-0.213-0.090-0.061-0.203-0.091-0.317-0.083-0.12-0.008-0.239 0.024-0.333 0.088-0.076 0.063-0.127 0.145-0.145 0.235-0.022 0.105-0.035 0.226-0.035 0.349 0 0.011 0 0.022 0 0.033l-0-0.002v1.866c-0.014 0.18 0.025 0.36 0.112 0.524 0.044 0.055 0.104 0.099 0.175 0.127 0.051 0.020 0.111 0.032 0.173 0.032 0.019 0 0.037-0.001 0.055-0.003l-0.002 0c0.112 0.008 0.223-0.022 0.31-0.084 0.071-0.061 0.117-0.141 0.13-0.227 0.018-0.101 0.028-0.217 0.028-0.336 0-0.013-0-0.027-0-0.040l0 0.002v-0.379h0.875v0.346c0.025 0.342-0.082 0.682-0.303 0.967-0.201 0.228-0.544 0.343-1.047 0.343s-0.884-0.122-1.1-0.375zM32.137 14.633c-0.221-0.239-0.332-0.588-0.332-1.050v-1.617c0-0.457 0.11-0.802 0.332-1.037s0.591-0.351 1.109-0.35c0.515 0 0.882 0.117 1.103 0.35 0.221 0.235 0.333 0.58 0.333 1.037v1.617c0 0.457-0.112 0.807-0.337 1.048s-0.591 0.361-1.1 0.361c-0.509 0-0.886-0.122-1.109-0.36zM33.654 14.245c0.079-0.15 0.115-0.314 0.105-0.479v-1.98c0.010-0.161-0.025-0.322-0.103-0.469-0.044-0.057-0.106-0.101-0.179-0.129-0.051-0.020-0.109-0.031-0.171-0.031-0.021 0-0.042 0.001-0.062 0.004l0.002-0c-0.018-0.002-0.038-0.004-0.059-0.004-0.062 0-0.121 0.011-0.176 0.033l0.003-0.001c-0.073 0.028-0.135 0.072-0.18 0.129-0.080 0.146-0.116 0.308-0.105 0.469v1.99c-0.011 0.165 0.025 0.329 0.105 0.479 0.051 0.050 0.114 0.091 0.185 0.119s0.147 0.042 0.225 0.042c0.078 0 0.154-0.014 0.225-0.042 0.072-0.028 0.133-0.068 0.185-0.119l-0 0v-0.009zM35.735 10.626h0.942l0.708 2.984 0.725-2.984h0.917l0.092 4.308h-0.678l-0.072-2.994-0.699 2.994h-0.544l-0.725-3.005-0.067 3.005h-0.685l0.085-4.308zM40.176 10.626h1.468c0.846 0 1.268 0.408 1.268 1.223 0 0.781-0.445 1.171-1.335 1.17h-0.5v1.915h-0.906l0.005-4.308zM41.43 12.467c0.090 0.010 0.18 0.003 0.266-0.021 0.089-0.024 0.166-0.064 0.233-0.116l-0.001 0.001c0.104-0.146 0.15-0.316 0.13-0.486 0.001-0.014 0.001-0.031 0.001-0.048 0-0.122-0.016-0.24-0.047-0.352l0.002 0.009c-0.014-0.046-0.037-0.085-0.067-0.118l0 0c-0.032-0.035-0.070-0.065-0.112-0.086l-0.002-0.001c-0.105-0.044-0.227-0.070-0.356-0.070-0.017 0-0.034 0-0.051 0.001l0.002-0h-0.352v1.287h0.352zM44.218 10.626h0.973l0.998 4.308h-0.844l-0.197-0.993h-0.868l-0.203 0.993h-0.857l0.998-4.308zM45.050 13.441l-0.339-1.808-0.339 1.808h0.678zM46.996 10.626h0.634l1.214 2.457v-2.457h0.752v4.308h-0.603l-1.221-2.565v2.565h-0.777l0.002-4.308zM51.357 13.291l-1.009-2.659h0.85l0.616 1.708 0.578-1.708h0.832l-0.997 2.659v1.642h-0.87v-1.642zM29.892 16.817v0.225h-0.739v1.75h-0.31v-1.75h-0.743v-0.225h1.792zM32.209 18.793h-0.239c-0.002 0-0.004 0-0.006 0-0.023 0-0.044-0.007-0.061-0.019l0 0c-0.017-0.011-0.031-0.026-0.040-0.045l-0-0.001-0.214-0.469h-1.026l-0.214 0.469c-0.007 0.021-0.018 0.039-0.033 0.053l-0 0c-0.017 0.012-0.039 0.019-0.062 0.019-0.002 0-0.004-0-0.006-0h-0.239l0.906-1.976h0.315l0.917 1.968zM30.709 18.059h0.855l-0.362-0.804c-0.023-0.051-0.046-0.112-0.064-0.176l-0.003-0.010c-0.013 0.038-0.024 0.073-0.034 0.105l-0.033 0.083-0.359 0.802zM33.771 18.599c0.057 0.003 0.114 0.003 0.17 0 0.054-0.005 0.104-0.013 0.152-0.025l-0.007 0.001c0.052-0.011 0.096-0.023 0.138-0.038l-0.008 0.002c0.040-0.014 0.080-0.031 0.121-0.048v-0.444h-0.362c-0.001 0-0.003 0-0.004 0-0.008 0-0.016-0.001-0.023-0.004l0.001 0c-0.009-0.003-0.016-0.007-0.023-0.012l0 0c-0.006-0.004-0.010-0.010-0.014-0.016l-0-0c-0.003-0.005-0.004-0.011-0.004-0.018 0-0.001 0-0.001 0-0.002v0-0.152h0.703v0.757c-0.11 0.069-0.237 0.125-0.373 0.159l-0.009 0.002c-0.064 0.017-0.141 0.031-0.219 0.040l-0.007 0.001c-0.078 0.008-0.169 0.012-0.261 0.012-0.001 0-0.002 0-0.004 0h0c-0.004 0-0.008 0-0.012 0-0.159 0-0.312-0.027-0.454-0.076l0.010 0.003c-0.136-0.047-0.259-0.117-0.362-0.206-0.101-0.090-0.18-0.196-0.234-0.313s-0.083-0.253-0.083-0.397c0-0.004 0-0.009 0-0.013v0.001c-0-0.004-0-0.008-0-0.012 0-0.145 0.030-0.282 0.084-0.407l-0.003 0.007c0.052-0.117 0.132-0.224 0.234-0.313 0.103-0.089 0.227-0.159 0.362-0.205 0.14-0.047 0.301-0.074 0.468-0.074 0.006 0 0.013 0 0.019 0h-0.001c0 0 0.001 0 0.001 0 0.088 0 0.175 0.006 0.26 0.018l-0.010-0.001c0.082 0.012 0.154 0.029 0.224 0.053l-0.009-0.003c0.063 0.021 0.124 0.047 0.181 0.078 0.056 0.031 0.108 0.065 0.158 0.103l-0.087 0.122c-0.007 0.012-0.017 0.021-0.029 0.027l-0 0c-0.012 0.006-0.026 0.010-0.041 0.010h-0c-0.021-0-0.040-0.006-0.057-0.016l0.001 0c-0.037-0.017-0.066-0.033-0.094-0.050l0.005 0.003c-0.034-0.019-0.074-0.037-0.116-0.051l-0.006-0.002c-0.046-0.017-0.102-0.032-0.16-0.043l-0.007-0.001c-0.066-0.011-0.141-0.017-0.218-0.017-0.004 0-0.008 0-0.012 0h0.001c-0.003-0-0.007-0-0.011-0-0.121 0-0.237 0.020-0.346 0.057l0.008-0.002c-0.101 0.035-0.192 0.088-0.266 0.156-0.075 0.071-0.132 0.155-0.169 0.246-0.038 0.098-0.061 0.211-0.061 0.329s0.022 0.232 0.063 0.336l-0.002-0.006c0.040 0.093 0.101 0.178 0.181 0.249 0.074 0.068 0.164 0.121 0.265 0.156 0.115 0.034 0.237 0.047 0.359 0.039zM36.659 18.567h0.989v0.225h-1.292v-1.976h0.31l-0.007 1.75zM38.678 18.792h-0.31v-1.976h0.31v1.976zM39.83 16.826c0.018 0.009 0.034 0.021 0.047 0.036l0 0 1.324 1.489c-0.001-0.011-0.001-0.023-0.001-0.035s0-0.025 0.001-0.037l-0 0.002v-1.472h0.27v1.984h-0.156c-0.003 0-0.007 0-0.010 0-0.020 0-0.040-0.004-0.058-0.012l0.001 0c-0.019-0.010-0.035-0.023-0.049-0.037l-0-0-1.323-1.488v1.536h-0.259v-1.976h0.161c0.018 0 0.036 0.003 0.052 0.010l-0.001-0zM43.753 16.817v0.217h-1.098v0.652h0.89v0.21h-0.89v0.674h1.098v0.217h-1.417v-1.971h1.417zM11.286 4.616l13.757 3.372v11.818l-13.757-3.371v-11.819zM10.404 3.609v13.401l15.52 3.806v-13.399l-15.52-3.807z"></path>
<path fill="#afb1b8" style="fill: var(--color2, #afb1b8)" d="M18.722 27.036l-15.522-3.809v-13.399l15.522 3.807v13.401z"></path>
<path fill="#afb1b8" style="fill: var(--color2, #afb1b8)" d="M10.661 4.465l13.578 3.33-5.774 4.987-13.58-3.332 5.776-4.985zM10.404 3.609l-7.204 6.219 15.522 3.807 7.202-6.219-15.52-3.807zM19.595 26.282l6.329-5.465-6.329-1.553v7.018z"></path>
</symbol>
<symbol id="icon-Logo" viewBox="0 0 57 32">
<path fill="#afb1b8" style="fill: var(--color2, #afb1b8)" d="M26.727 3.165h-0.073c-0.112-0.007-0.224-0.010-0.336-0.012h-0.243c-0.212 0-0.428 0.005-0.642 0.016-0.007-0.001-0.016-0.001-0.024-0.001s-0.017 0-0.025 0.001l0.001-0c-2.059 0.12-3.971 0.635-5.699 1.47l0.090-0.039-0.231 0.111v11.809l0.54-0.183c0.474-0.163 0.978-0.309 1.5-0.445 1.29-0.345 2.775-0.553 4.305-0.574l0.013-0v1.551c-0.204 0.001-0.403 0.007-0.6 0.018l0.032-0.001h-0.045c-1.212 0.068-2.348 0.25-3.442 0.537l0.12-0.027c-1.503 0.382-2.82 0.91-4.044 1.586l0.087-0.044v-15.145c1.195-0.711 2.578-1.289 4.042-1.665l0.11-0.024c1.173-0.315 2.52-0.499 3.909-0.504h0.231c0.273 0.007 0.538 0.019 0.788 0.038 0.719 0.052 1.384 0.162 2.028 0.328l-0.078-0.017v1.527c-0.544-0.133-1.19-0.235-1.85-0.282l-0.039-0.002-0.039-0.003c-0.132-0.011-0.263-0.022-0.386-0.022zM29.415 4.726c0.339 0.026 0.689 0.038 1.044 0.038 1.464-0.006 2.881-0.198 4.231-0.554l-0.117 0.026c1.503-0.384 2.819-0.912 4.043-1.588l-0.087 0.044v14.875c-1.196 0.71-2.578 1.289-4.043 1.665l-0.11 0.024c-1.173 0.314-2.52 0.497-3.909 0.503h-0.004c-0.029 0-0.062 0-0.096 0-1.020 0-2.010-0.128-2.955-0.368l0.083 0.018v-14.971c0.229 0.053 0.465 0.102 0.706 0.142 0.394 0.066 0.81 0.115 1.214 0.145zM36.985 4.841l-0.54 0.182c-0.326 0.12-0.827 0.273-1.334 0.411l-0.166 0.038c-1.344 0.36-2.888 0.569-4.48 0.575h-0.004c-0.352 0-0.676-0.010-0.989-0.030l-0.43-0.028v12.148l0.37 0.033c0.343 0.030 0.696 0.045 1.052 0.045 1.257-0.006 2.473-0.172 3.631-0.48l-0.1 0.023c1.058-0.269 1.977-0.608 2.847-1.030l-0.088 0.039 0.231-0.111v-11.813z"></path>
<path fill="#afb1b8" style="fill: var(--color2, #afb1b8)" d="M19.060 24.113c-0.076-0.079-0.167-0.141-0.269-0.184l-0.005-0.002c-0.088-0.037-0.19-0.058-0.297-0.058-0.010 0-0.020 0-0.030 0.001l0.001-0c-0.004-0-0.008-0-0.012-0-0.121 0-0.236 0.024-0.341 0.067l0.006-0.002c-0.105 0.043-0.195 0.103-0.27 0.178v0c-0.074 0.075-0.133 0.166-0.172 0.266l-0.002 0.005c-0.039 0.096-0.062 0.208-0.062 0.325 0 0.004 0 0.007 0 0.011v-0.001 2.023c-0.005 0.143 0.022 0.284 0.080 0.415 0.050 0.107 0.118 0.197 0.201 0.27l0.001 0.001c0.081 0.068 0.176 0.117 0.278 0.144 0.090 0.026 0.195 0.042 0.302 0.042h0c0.002 0 0.005 0 0.007 0 0.116 0 0.226-0.026 0.324-0.073l-0.005 0.002c0.105-0.047 0.195-0.11 0.27-0.187l0-0c0.073-0.076 0.133-0.166 0.175-0.265l0.002-0.006c0.041-0.094 0.065-0.204 0.065-0.319 0-0.001 0-0.003 0-0.004v0-0.226h-0.529v0.18c0 0.004 0 0.008 0 0.012 0 0.061-0.011 0.118-0.032 0.171l0.001-0.003c-0.018 0.045-0.044 0.083-0.077 0.114l-0 0c-0.031 0.025-0.068 0.045-0.108 0.058l-0.002 0.001c-0.033 0.011-0.071 0.018-0.11 0.019h-0c-0.009 0.001-0.020 0.002-0.031 0.002-0.039 0-0.076-0.008-0.109-0.023l0.002 0.001c-0.045-0.020-0.081-0.050-0.109-0.087l-0.001-0.001c-0.044-0.071-0.071-0.158-0.071-0.25 0-0.007 0-0.015 0-0.022l-0 0.001v-1.887c-0-0.006-0-0.013-0-0.020 0-0.103 0.024-0.2 0.067-0.286l-0.002 0.004c0.028-0.043 0.066-0.076 0.11-0.098l0.002-0.001c0.034-0.016 0.073-0.026 0.114-0.026 0.011 0 0.023 0.001 0.034 0.002l-0.001-0c0.003-0 0.007-0 0.010-0 0.092 0 0.174 0.045 0.226 0.113l0.001 0.001c0.055 0.071 0.088 0.162 0.088 0.26 0 0.004-0 0.008-0 0.011v-0.001 0.175h0.524v-0.206c0-0.002 0-0.005 0-0.008 0-0.124-0.024-0.243-0.067-0.352l0.002 0.006c-0.041-0.111-0.101-0.205-0.177-0.285l0 0zM22.202 24.090c-0.161-0.137-0.372-0.221-0.601-0.222h-0c-0.113 0-0.222 0.021-0.322 0.059l0.006-0.002c-0.108 0.039-0.201 0.095-0.28 0.166l0.001-0.001c-0.086 0.078-0.155 0.172-0.203 0.278l-0.002 0.005c-0.049 0.11-0.077 0.239-0.077 0.374 0 0.006 0 0.013 0 0.019v-0.001 1.941c-0.004 0.137 0.023 0.272 0.077 0.397 0.048 0.104 0.118 0.197 0.205 0.271 0.081 0.075 0.176 0.133 0.279 0.171 0.101 0.037 0.208 0.056 0.316 0.057 0.113-0 0.222-0.021 0.322-0.059l-0.006 0.002c0.11-0.041 0.205-0.099 0.287-0.172l-0.001 0.001c0.083-0.075 0.15-0.165 0.198-0.266l0.002-0.005c0.049-0.11 0.077-0.238 0.077-0.372 0-0.009-0-0.018-0-0.026l0 0.001v-1.941c0-0.005 0-0.012 0-0.018 0-0.135-0.028-0.263-0.079-0.38l0.002 0.006c-0.049-0.111-0.117-0.205-0.199-0.283l-0-0zM21.955 26.706c0.001 0.009 0.001 0.019 0.001 0.030 0 0.098-0.041 0.187-0.106 0.251l-0 0c-0.067 0.056-0.154 0.091-0.249 0.091v0c-0.095-0-0.182-0.034-0.25-0.091l0.001 0c-0.066-0.063-0.107-0.152-0.107-0.251 0-0.011 0-0.021 0.001-0.031l-0 0.001v-1.941c-0.001-0.009-0.001-0.020-0.001-0.030 0-0.098 0.041-0.187 0.106-0.251l0-0c0.067-0.056 0.154-0.091 0.249-0.091v0c0.095 0 0.182 0.034 0.25 0.091l-0.001-0c0.066 0.063 0.107 0.152 0.107 0.251 0 0.011-0 0.021-0.001 0.032l0-0.001v1.941zM26.329 27.573v-3.674h-0.509l-0.668 1.945h-0.009l-0.673-1.945h-0.503v3.674h0.525v-2.235h0.009l0.514 1.58h0.262l0.518-1.58h0.009v2.235h0.525zM29.311 24.157c-0.079-0.089-0.179-0.157-0.292-0.199l-0.005-0.002c-0.108-0.036-0.232-0.057-0.36-0.057-0.007 0-0.014 0-0.021 0h-0.779v3.674h0.523v-1.435h0.27c0.163 0.007 0.326-0.027 0.472-0.1 0.12-0.068 0.217-0.163 0.285-0.277l0.002-0.003c0.058-0.092 0.1-0.2 0.119-0.315l0.001-0.005c0.018-0.116 0.029-0.249 0.029-0.385 0-0.012-0-0.023-0-0.034l0 0.002c0.001-0.018 0.001-0.039 0.001-0.061 0-0.165-0.019-0.325-0.055-0.478l0.003 0.014c-0.037-0.132-0.104-0.246-0.193-0.338l0 0zM29.041 25.277c-0.002 0.070-0.020 0.136-0.050 0.194l0.001-0.003c-0.030 0.056-0.077 0.101-0.133 0.128l-0.002 0.001c-0.064 0.030-0.14 0.047-0.219 0.047-0.010 0-0.019-0-0.029-0.001l0.001 0h-0.239v-1.249h0.27c0.007-0 0.016-0.001 0.025-0.001 0.077 0 0.149 0.017 0.215 0.048l-0.003-0.001c0.054 0.032 0.096 0.078 0.122 0.134l0.001 0.002c0.029 0.065 0.044 0.134 0.046 0.205v0.244c0 0.085 0.005 0.174 0 0.252h-0.005zM31.791 23.899h-0.429l-0.809 3.674h0.523l0.154-0.789h0.714l0.154 0.789h0.524l-0.83-3.674zM31.308 26.283l0.258-1.332h0.009l0.256 1.332h-0.524zM35.173 26.112h-0.009l-0.791-2.213h-0.503v3.674h0.523v-2.209h0.011l0.8 2.209h0.492v-3.674h-0.523v2.213zM38.372 23.899l-0.421 1.461h-0.011l-0.421-1.461h-0.554l0.719 2.121v1.553h0.524v-1.553l0.719-2.121h-0.554zM17.6 28.61h0.252v0.708h0.171v-0.708h0.251v-0.145h-0.675v0.145zM19.721 28.465l-0.331 0.853h0.182l0.070-0.194h0.34l0.073 0.194h0.186l-0.339-0.853h-0.182zM19.694 28.981l0.116-0.316 0.116 0.316h-0.232zM21.818 29.004h0.197v0.11c-0.055 0.044-0.125 0.071-0.202 0.072h-0c-0.004 0-0.008 0-0.012 0-0.068 0-0.129-0.032-0.169-0.081l-0-0c-0.040-0.057-0.064-0.128-0.064-0.204 0-0.007 0-0.013 0.001-0.020l-0 0.001c0-0.19 0.082-0.285 0.246-0.285 0.005-0.001 0.012-0.001 0.018-0.001 0.039 0 0.075 0.012 0.104 0.033l-0.001-0c0.035 0.025 0.060 0.061 0.071 0.102l0 0.001 0.169-0.033c-0.036-0.167-0.156-0.251-0.362-0.251-0.003-0-0.007-0-0.011-0-0.11 0-0.211 0.042-0.287 0.11l0-0c-0.077 0.076-0.124 0.181-0.124 0.297 0 0.011 0 0.022 0.001 0.033l-0-0.001c-0 0.006-0 0.013-0 0.020 0 0.115 0.041 0.22 0.11 0.301l-0.001-0.001c0.075 0.078 0.18 0.126 0.296 0.126 0.010 0 0.019-0 0.029-0.001l-0.001 0c0.004 0 0.009 0 0.014 0 0.134 0 0.256-0.052 0.348-0.136l-0 0v-0.336h-0.37v0.144zM23.959 28.465h-0.173v0.853h0.598v-0.145h-0.425v-0.708zM25.769 28.465h-0.173v0.853h0.173v-0.853zM27.539 29.035l-0.349-0.57h-0.167v0.853h0.161v-0.557l0.343 0.557h0.171v-0.853h-0.158v0.57zM29.14 28.943h0.425v-0.145h-0.425v-0.187h0.457v-0.145h-0.63v0.853h0.648v-0.145h-0.475v-0.231zM33.020 28.802h-0.336v-0.336h-0.171v0.853h0.171v-0.373h0.336v0.373h0.171v-0.853h-0.171v0.336zM34.629 28.943h0.426v-0.145h-0.426v-0.187h0.459v-0.145h-0.63v0.853h0.646v-0.145h-0.475v-0.231zM36.812 28.943c0.148-0.023 0.224-0.102 0.224-0.237 0.001-0.007 0.001-0.016 0.001-0.024 0-0.068-0.033-0.128-0.084-0.165l-0.001-0c-0.063-0.032-0.138-0.051-0.216-0.051-0.012 0-0.023 0-0.035 0.001l0.002-0h-0.362v0.853h0.171v-0.357h0.034c0.004-0 0.009-0 0.014-0 0.033 0 0.065 0.007 0.094 0.020l-0.001-0.001c0.025 0.016 0.046 0.037 0.060 0.062l0 0.001 0.186 0.271h0.205l-0.104-0.167c-0.047-0.083-0.111-0.152-0.187-0.203l-0.002-0.001zM36.64 28.825h-0.127v-0.214h0.135c0.011-0.001 0.023-0.001 0.036-0.001 0.049 0 0.097 0.008 0.141 0.023l-0.003-0.001c0.023 0.021 0.038 0.050 0.038 0.084 0 0.037-0.018 0.070-0.045 0.090l-0 0c-0.043 0.014-0.092 0.021-0.143 0.021-0.011 0-0.022-0-0.033-0.001l0.001 0zM38.458 28.943h0.425v-0.145h-0.425v-0.187h0.459v-0.145h-0.631v0.853h0.648v-0.145h-0.475v-0.231z"></path>
</symbol>
<symbol id="icon-smartphone" viewBox="0 0 20 32">
<path fill="#757575" style="fill: var(--color1, #757575)" d="M17 0h-14c-1.654 0-3 1.346-3 3v26c0 1.654 1.346 3 3 3h14c1.654 0 3-1.346 3-3v-26c0-1.654-1.346-3-3-3zM3 2h14c0.552 0 1 0.448 1 1v21h-16v-21c0-0.552 0.448-1 1-1zM17 30h-14c-0.552-0-1-0.448-1-1v-3h16v3c0 0.552-0.448 1-1 1z"></path>
<path fill="#757575" style="fill: var(--color1, #757575)" d="M4.707 27.478c0.391 0.365 0.391 0.956 0 1.32s-1.024 0.364-1.414 0c-0.391-0.365-0.391-0.956 0-1.32s1.024-0.365 1.414 0z"></path>
</symbol>
<symbol id="icon-twitter-1" viewBox="0 0 32 32">
<path fill="#afb1b8" style="fill: var(--color2, #afb1b8)" d="M32 6.078c-1.19 0.522-2.458 0.868-3.78 1.036 1.36-0.812 2.398-2.088 2.886-3.626-1.268 0.756-2.668 1.29-4.16 1.588-1.204-1.282-2.92-2.076-4.792-2.076-3.632 0-6.556 2.948-6.556 6.562 0 0.52 0.044 1.020 0.152 1.496-5.454-0.266-10.28-2.88-13.522-6.862-0.566 0.982-0.898 2.106-0.898 3.316 0 2.272 1.17 4.286 2.914 5.452-1.054-0.020-2.088-0.326-2.964-0.808v0.072c0 3.188 2.274 5.836 5.256 6.446-0.534 0.146-1.116 0.216-1.72 0.216-0.42 0-0.844-0.024-1.242-0.112 0.85 2.598 3.262 4.508 6.13 4.57-2.214 1.744-5.044 2.798-8.12 2.798-0.005 0-0.010 0-0.015 0h0.001c-0.538 0-1.054-0.024-1.57-0.090 2.906 1.874 6.35 2.944 10.064 2.944 12.072 0 18.672-10 18.672-18.668 0-0.29-0.010-0.57-0.024-0.848 1.302-0.924 2.396-2.078 3.288-3.406z"></path>
</symbol>
</defs>
</svg>
